<svg width="537.149" height="292.377" viewBox="0 0 142.121 77.358" xmlns="http://www.w3.org/2000/svg"><defs><filter id="prefix__b" x="-.006" y="-.014" width="1.016" height="1.04" color-interpolation-filters="sRGB"><feFlood flood-opacity="1" flood-color="#4A5C66" result="flood"/><feComposite in="flood" in2="SourceGraphic" operator="in" result="composite1"/><feGaussianBlur in="composite1" stdDeviation="1" result="blur"/><feOffset dx="2" dy="2" result="offset"/><feComposite in="SourceGraphic" in2="offset" result="composite2"/></filter><path id="prefix__a" d="M139.591 272.581h807.147v298.665H139.591z"/></defs><path d="M88.747 21.729c.2-1.89 30.312-17.743 32.846-16.547 3.6 1.699 20.358 36.534 20.527 39.29.12 1.94-21.245 11.133-23.567 9.989-3.3-1.625-30.089-30.046-29.806-32.732z" fill="#f1f285"/><path d="M71.861 48.654c-2.395-.57-21.195-20.496-20.349-23.133.625-1.947 29.509-11.294 31.277-10.873 2.395.57 21.196 20.496 20.35 23.133-.626 1.948-29.51 11.294-31.278 10.873z" fill="#a6eaff"/><path d="M28.957 35.183c-.6-1.763 6.16-33.938 8.088-35.156 1.142-.72 24.598 13.272 24.953 14.315.6 1.764-6.16 33.939-8.088 35.157-1.141.72-24.598-13.272-24.953-14.316z" fill="#f1869b"/><path d="M3.746 39.117C2.163 37.345-1.37 9.885.564 7.96c1.336-1.33 28.197 3.965 29.29 5.188 1.582 1.772 5.115 29.232 3.18 31.158-1.335 1.33-28.196-3.965-29.288-5.188z" fill="#bc85f2"/><text transform="matrix(.26458 0 0 .26458 -20.161 -64.649)" font-size="181.333" font-family="Arial Th" fill="#80ba27" filter="url(#prefix__b)"><tspan x="139.592" y="436.135">OSApp</tspan></text><text style="line-height:1.25;-inkscape-font-specification:'Arial Th';font-variant-ligatures:none" x="93.584" y="64.958" font-size="9.525" font-family="Arial Th" fill="#4b5c66" stroke-width=".265" transform="translate(-75.302 -4.817)"><tspan x="93.584" y="64.958">Online Self Assessment</tspan></text><text style="line-height:1.25;-inkscape-font-specification:'Arial Th';font-variant-ligatures:none" x="93.099" y="79.36" font-size="13.406" font-family="Arial Th" letter-spacing=".045" fill="#4b5c66" stroke-width=".265" transform="translate(-75.302 -4.817)"><tspan x="93.099" y="79.36">Medieninformatik (B. Sc.)</tspan></text></svg>