<svg width="25" height="25" viewBox="0 0 25 25" fill="none" xmlns="http://www.w3.org/2000/svg">
<path d="M3.90626 12.5001C3.90603 10.9915 4.30294 9.50935 5.0571 8.20275C5.81127 6.89615 6.8961 5.8111 8.20256 5.05668C9.50901 4.30227 10.991 3.90506 12.4997 3.905C14.0083 3.90495 15.4904 4.30203 16.7969 5.05635C16.9762 5.15831 17.1886 5.1852 17.3877 5.13115C17.5868 5.0771 17.7565 4.94649 17.8596 4.76783C17.9628 4.58917 17.9911 4.37696 17.9383 4.17751C17.8856 3.97806 17.7561 3.80756 17.5781 3.70322C15.642 2.58538 13.3911 2.13763 11.1745 2.42941C8.95796 2.72119 6.89961 3.73619 5.31869 5.31701C3.73777 6.89783 2.72264 8.95611 2.43072 11.1727C2.13879 13.3892 2.5864 15.6401 3.70412 17.5764C4.82183 19.5126 6.5472 21.0259 8.61263 21.8816C10.6781 22.7374 12.9681 22.8877 15.1277 22.3092C17.2873 21.7308 19.1956 20.456 20.5568 18.6824C21.918 16.9089 22.656 14.7358 22.6563 12.5001C22.6563 12.2929 22.574 12.0942 22.4274 11.9477C22.2809 11.8012 22.0822 11.7188 21.875 11.7188C21.6678 11.7188 21.4691 11.8012 21.3226 11.9477C21.1761 12.0942 21.0938 12.2929 21.0938 12.5001C21.0938 14.7793 20.1884 16.9652 18.5767 18.5768C16.9651 20.1884 14.7792 21.0938 12.5 21.0938C10.2208 21.0938 8.03496 20.1884 6.42332 18.5768C4.81167 16.9652 3.90626 14.7793 3.90626 12.5001Z" fill="black"/>
<path d="M23.9906 5.24064C24.0633 5.168 24.1209 5.08176 24.1602 4.98686C24.1995 4.89195 24.2197 4.79024 24.2197 4.68751C24.2197 4.58479 24.1995 4.48307 24.1602 4.38816C24.1209 4.29326 24.0633 4.20702 23.9906 4.13439C23.918 4.06175 23.8318 4.00413 23.7369 3.96482C23.642 3.92551 23.5402 3.90527 23.4375 3.90527C23.3348 3.90527 23.2331 3.92551 23.1382 3.96482C23.0433 4.00413 22.957 4.06175 22.8844 4.13439L12.5 14.5203L8.36564 10.3844C8.293 10.3117 8.20677 10.2541 8.11186 10.2148C8.01695 10.1755 7.91524 10.1553 7.81251 10.1553C7.70979 10.1553 7.60807 10.1755 7.51316 10.2148C7.41826 10.2541 7.33202 10.3117 7.25939 10.3844C7.18675 10.457 7.12913 10.5433 7.08982 10.6382C7.05051 10.7331 7.03027 10.8348 7.03027 10.9375C7.03027 11.0402 7.05051 11.142 7.08982 11.2369C7.12913 11.3318 7.18675 11.418 7.25939 11.4906L11.9469 16.1781C12.0195 16.2509 12.1057 16.3086 12.2006 16.348C12.2955 16.3874 12.3972 16.4077 12.5 16.4077C12.6028 16.4077 12.7045 16.3874 12.7994 16.348C12.8944 16.3086 12.9806 16.2509 13.0531 16.1781L23.9906 5.24064Z" fill="#8CBA45"/>
</svg>
