<svg width="23" height="23" viewBox="0 0 23 23" fill="none" xmlns="http://www.w3.org/2000/svg">
<g clip-path="url(#clip0_169_737)">
<path d="M11.4109 2.89808C11.4391 2.88263 11.4708 2.87471 11.5029 2.87508C11.5346 2.87496 11.5657 2.88287 11.5935 2.89808C11.6264 2.9178 11.6532 2.94613 11.6711 2.98002L21.5281 19.7513C21.5798 19.8376 21.5784 19.9296 21.5309 20.0144C21.5127 20.0492 21.486 20.0789 21.4533 20.1006C21.4248 20.1181 21.3918 20.1266 21.3584 20.1251H1.64743C1.61407 20.1267 1.58099 20.1182 1.55256 20.1006C1.51986 20.0789 1.49317 20.0492 1.47493 20.0144C1.45125 19.9745 1.43898 19.9289 1.43949 19.8825C1.44 19.8361 1.45325 19.7907 1.47781 19.7513L11.3333 2.98002C11.3513 2.94618 11.3781 2.91785 11.4109 2.89808ZM12.9117 2.25121C12.7694 2.00333 12.5642 1.79739 12.3169 1.65418C12.0695 1.51096 11.7888 1.43555 11.5029 1.43555C11.2171 1.43555 10.9364 1.51096 10.689 1.65418C10.4417 1.79739 10.2365 2.00333 10.0942 2.25121L0.237247 19.0225C-0.41969 20.1409 0.36806 21.5626 1.646 21.5626H21.3584C22.6364 21.5626 23.4256 20.1395 22.7672 19.0225L12.9117 2.25121Z" fill="black"/>
<path d="M10.0654 17.2501C10.0654 17.0613 10.1026 16.8744 10.1749 16.7C10.2471 16.5256 10.353 16.3671 10.4865 16.2336C10.6199 16.1002 10.7784 15.9943 10.9528 15.922C11.1272 15.8498 11.3142 15.8126 11.5029 15.8126C11.6917 15.8126 11.8786 15.8498 12.053 15.922C12.2274 15.9943 12.3859 16.1002 12.5194 16.2336C12.6529 16.3671 12.7588 16.5256 12.831 16.7C12.9032 16.8744 12.9404 17.0613 12.9404 17.2501C12.9404 17.6314 12.789 17.997 12.5194 18.2666C12.2498 18.5362 11.8842 18.6876 11.5029 18.6876C11.1217 18.6876 10.756 18.5362 10.4865 18.2666C10.2169 17.997 10.0654 17.6314 10.0654 17.2501ZM10.2063 8.61792C10.1872 8.43657 10.2064 8.25321 10.2627 8.07976C10.3189 7.90631 10.4111 7.74662 10.5331 7.61108C10.6551 7.47553 10.8042 7.36714 10.9708 7.29295C11.1374 7.21876 11.3177 7.18042 11.5001 7.18042C11.6824 7.18042 11.8627 7.21876 12.0293 7.29295C12.1959 7.36714 12.345 7.47553 12.467 7.61108C12.589 7.74662 12.6812 7.90631 12.7375 8.07976C12.7937 8.25321 12.8129 8.43657 12.7938 8.61792L12.2907 13.6592C12.2738 13.8573 12.1832 14.0418 12.0368 14.1762C11.8903 14.3106 11.6988 14.3852 11.5001 14.3852C11.3013 14.3852 11.1098 14.3106 10.9634 14.1762C10.817 14.0418 10.7263 13.8573 10.7094 13.6592L10.2063 8.61792Z" fill="#FF8311"/>
</g>
<defs>
<clipPath id="clip0_169_737">
<rect width="23" height="23" fill="white"/>
</clipPath>
</defs>
</svg>
