<?xml version="1.0" encoding="UTF-8" standalone="no"?>
<!-- Created with Inkscape (http://www.inkscape.org/) -->

<svg
   width="154.78125mm"
   height="51.59375mm"
   viewBox="0 0 154.78125 51.59375"
   version="1.1"
   id="svg12413"
   xml:space="preserve"
   xmlns="http://www.w3.org/2000/svg"
   xmlns:svg="http://www.w3.org/2000/svg"><defs
     id="defs12410" /><g
     id="layer1"
     transform="translate(213.905,-55.483726)"><g
       id="g12788"
       transform="matrix(0.26458333,0,0,0.26458333,-213.905,55.483726)"><path
         style="fill:#80ba27;fill-opacity:1;fill-rule:nonzero;stroke:none"
         d="M 98,134 H 73 v -24 h 25 z"
         id="path12537" /><path
         style="fill:#4b5c66;fill-opacity:1;fill-rule:nonzero;stroke:none"
         d="M 98,98 H 73 V 73 h 25 z"
         id="path12539" /><path
         style="fill:#4b5c66;fill-opacity:1;fill-rule:nonzero;stroke:none"
         d="M 98,61 H 73 V 37 h 25 z"
         id="path12541" /><path
         style="fill:#4b5c66;fill-opacity:1;fill-rule:nonzero;stroke:none"
         d="M 98,24 H 73 V 0 h 25 z"
         id="path12543" /><path
         style="fill:#4b5c66;fill-opacity:1;fill-rule:nonzero;stroke:none"
         d="M 61,61 H 37 V 37 h 24 z"
         id="path12545" /><path
         style="fill:#4b5c66;fill-opacity:1;fill-rule:nonzero;stroke:none"
         d="M 61,24 H 37 V 0 h 24 z"
         id="path12547" /><path
         style="fill:#4b5c66;fill-opacity:1;fill-rule:nonzero;stroke:none"
         d="M 25,61 H 0 V 37 h 25 z"
         id="path12549" /><path
         style="fill:#80ba27;fill-opacity:1;fill-rule:nonzero;stroke:none"
         d="M 61,134 H 37 v -24 h 24 z"
         id="path12551" /><path
         style="fill:#4b5c66;fill-opacity:1;fill-rule:nonzero;stroke:none"
         d="M 61,98 H 37 V 73 h 24 z"
         id="path12553" /><path
         style="fill:#4b5c66;fill-opacity:1;fill-rule:nonzero;stroke:none"
         d="M 25,134 H 0 v -24 h 25 z"
         id="path12555" /><path
         style="fill:#80ba27;fill-opacity:1;fill-rule:nonzero;stroke:none"
         d="M 25,98 H 0 V 73 h 25 z"
         id="path12557" /><path
         style="fill:#80ba27;fill-opacity:1;fill-rule:nonzero;stroke:none"
         d="M 259,24 V 134 H 232 V 24 H 196 V 0 h 100 v 24 z"
         id="path12559" /><path
         style="fill:#80ba27;fill-opacity:1;fill-rule:nonzero;stroke:none"
         d="M 401,134 V 78 h -47 v 56 H 326 V 0 h 28 v 54 h 47 V 0 h 27 v 134 z"
         id="path12561" /><path
         style="fill:#80ba27;fill-opacity:1;fill-rule:nonzero;stroke:none"
         d="M 558,134 V 58 l -26,52 H 512 L 486,58 v 76 H 459 V 0 h 27 l 36,75 36,-75 h 27 v 134 z"
         id="path12563" /><path
         style="fill:#4b5c66;fill-opacity:1;fill-rule:nonzero;stroke:none"
         d="m 585,194 c 0,-29 0,-29 0,-29 -3,0 -3,0 -3,0 0,20 0,20 0,20 -8,-20 -8,-20 -8,-20 -3,0 -3,0 -3,0 0,29 0,29 0,29 3,0 3,0 3,0 0,-20 0,-20 0,-20 8,20 8,20 8,20 z m -19,0 c 0,-3 0,-3 0,-3 -8,0 -8,0 -8,0 0,-10 0,-10 0,-10 7,0 7,0 7,0 0,-3 0,-3 0,-3 -7,0 -7,0 -7,0 0,-10 0,-10 0,-10 8,0 8,0 8,0 0,-3 0,-3 0,-3 -12,0 -12,0 -12,0 0,29 0,29 0,29 z m -17,-8 c 0,-4 -1,-6 -4,-8 -3,-1 -3,-1 -3,-1 -3,-1 -3,-2 -3,-5 0,-1 0,-3 1,-3 0,-1 1,-1 2,-1 1,0 2,0 2,1 1,1 1,2 1,3 4,0 4,0 4,0 0,-2 -1,-4 -2,-6 -1,-1 -3,-1 -5,-1 -2,0 -3,0 -5,1 -1,2 -2,4 -2,6 0,5 1,6 4,8 4,1 4,1 4,1 2,1 2,2 2,5 0,2 0,3 -1,4 0,1 -1,1 -2,1 -1,0 -2,0 -2,-1 -1,0 -1,-2 -1,-3 -4,0 -4,0 -4,0 0,3 0,4 2,6 1,1 3,1 5,1 2,0 4,0 5,-1 2,-2 2,-4 2,-7 m -19,0 c 0,-4 -1,-6 -4,-8 -3,-1 -3,-1 -3,-1 -3,-1 -3,-2 -3,-5 0,-1 0,-3 1,-3 1,-1 1,-1 2,-1 1,0 2,0 3,1 0,1 1,2 1,3 3,0 3,0 3,0 0,-2 0,-4 -2,-6 -1,-1 -3,-1 -5,-1 -2,0 -3,0 -4,1 -2,2 -3,4 -3,6 0,5 1,6 4,8 4,1 4,1 4,1 2,1 3,2 3,5 0,2 0,3 -1,4 -1,1 -2,1 -3,1 -1,0 -2,0 -2,-1 -1,0 -1,-2 -1,-3 -4,0 -4,0 -4,0 0,3 1,4 2,6 1,1 3,1 5,1 3,0 4,0 5,-1 2,-2 2,-4 2,-7 m -18,8 c 0,-3 0,-3 0,-3 -8,0 -8,0 -8,0 0,-10 0,-10 0,-10 7,0 7,0 7,0 0,-3 0,-3 0,-3 -7,0 -7,0 -7,0 0,-10 0,-10 0,-10 8,0 8,0 8,0 0,-3 0,-3 0,-3 -12,0 -12,0 -12,0 0,29 0,29 0,29 z m -18,0 c 0,-29 0,-29 0,-29 -3,0 -3,0 -3,0 0,13 0,13 0,13 -7,0 -7,0 -7,0 0,-13 0,-13 0,-13 -3,0 -3,0 -3,0 0,29 0,29 0,29 3,0 3,0 3,0 0,-13 0,-13 0,-13 7,0 7,0 7,0 0,13 0,13 0,13 z m -18,0 c 0,-3 0,-3 0,-3 -8,0 -8,0 -8,0 0,-26 0,-26 0,-26 -3,0 -3,0 -3,0 0,29 0,29 0,29 z m -17,0 c 0,-3 0,-3 0,-3 -7,0 -7,0 -7,0 0,-10 0,-10 0,-10 6,0 6,0 6,0 0,-3 0,-3 0,-3 -6,0 -6,0 -6,0 0,-10 0,-10 0,-10 7,0 7,0 7,0 0,-3 0,-3 0,-3 -11,0 -11,0 -11,0 0,29 0,29 0,29 z m -16,-26 c 0,-3 0,-3 0,-3 -13,0 -13,0 -13,0 0,3 0,3 0,3 5,0 5,0 5,0 0,26 0,26 0,26 3,0 3,0 3,0 0,-26 0,-26 0,-26 z m -17,0 c 0,-3 0,-3 0,-3 -14,0 -14,0 -14,0 0,3 0,3 0,3 5,0 5,0 5,0 0,26 0,26 0,26 4,0 4,0 4,0 0,-26 0,-26 0,-26 z m -18,-3 c -4,0 -4,0 -4,0 0,29 0,29 0,29 4,0 4,0 4,0 z m -10,29 c 0,-29 0,-29 0,-29 -3,0 -3,0 -3,0 -6,16 -6,16 -6,16 -6,-16 -6,-16 -6,-16 -3,0 -3,0 -3,0 0,29 0,29 0,29 3,0 3,0 3,0 0,-20 0,-20 0,-20 5,13 5,13 5,13 2,0 2,0 2,0 5,-14 5,-14 5,-14 0,21 0,21 0,21 z m -33,0 c 0,-3 0,-3 0,-3 -8,0 -8,0 -8,0 0,-10 0,-10 0,-10 7,0 7,0 7,0 0,-3 0,-3 0,-3 -7,0 -7,0 -7,0 0,-10 0,-10 0,-10 8,0 8,0 8,0 0,-3 0,-3 0,-3 -11,0 -11,0 -11,0 0,29 0,29 0,29 z m -16,0 c 0,-3 0,-3 0,-3 -8,0 -8,0 -8,0 0,-26 0,-26 0,-26 -3,0 -3,0 -3,0 0,29 0,29 0,29 z m -17,-6 c 0,-23 0,-23 0,-23 -4,0 -4,0 -4,0 0,23 0,23 0,23 0,2 -1,3 -3,3 -2,0 -3,-1 -3,-3 0,-23 0,-23 0,-23 -4,0 -4,0 -4,0 0,23 0,23 0,23 0,2 1,3 2,5 1,1 3,2 5,2 2,0 4,-1 5,-2 1,-2 2,-3 2,-5 m -20,6 c 0,-29 0,-29 0,-29 -3,0 -3,0 -3,0 0,13 0,13 0,13 -7,0 -7,0 -7,0 0,-13 0,-13 0,-13 -3,0 -3,0 -3,0 0,29 0,29 0,29 3,0 3,0 3,0 0,-13 0,-13 0,-13 7,0 7,0 7,0 0,13 0,13 0,13 z m -18,-7 c -4,0 -4,0 -4,0 0,1 0,2 -1,3 0,1 -1,1 -2,1 -1,0 -2,0 -2,-1 -1,-1 -2,-4 -2,-10 0,-7 1,-10 2,-11 0,-1 1,-1 2,-1 1,0 2,0 2,1 1,1 1,2 1,3 4,0 4,0 4,0 0,-2 -1,-4 -2,-6 -2,-1 -3,-1 -5,-1 -2,0 -4,0 -5,2 -2,2 -2,4 -2,13 0,8 0,10 2,12 1,2 3,3 5,3 2,0 3,-1 5,-2 1,-1 2,-4 2,-6 m -19,-1 c 0,-4 0,-6 -4,-8 -3,-1 -3,-1 -3,-1 -2,-1 -3,-2 -3,-5 0,-1 0,-3 1,-3 1,-1 1,-1 2,-1 2,0 2,0 3,1 1,1 1,2 1,3 3,0 3,0 3,0 0,-2 0,-4 -2,-6 -1,-1 -2,-1 -5,-1 -1,0 -3,0 -4,1 -2,2 -2,4 -2,6 0,5 1,6 4,8 3,1 3,1 3,1 2,1 3,2 3,5 0,2 0,3 -1,4 -1,1 -1,1 -3,1 -1,0 -2,0 -2,-1 -1,0 -1,-2 -1,-3 -4,0 -4,0 -4,0 0,3 1,4 2,6 1,1 3,1 5,1 3,0 4,0 6,-1 1,-2 1,-4 1,-7 m -19,8 c 0,-29 0,-29 0,-29 -3,0 -3,0 -3,0 0,13 0,13 0,13 -7,0 -7,0 -7,0 0,-13 0,-13 0,-13 -3,0 -3,0 -3,0 0,29 0,29 0,29 3,0 3,0 3,0 0,-13 0,-13 0,-13 7,0 7,0 7,0 0,13 0,13 0,13 z m -19,-7 c -3,0 -3,0 -3,0 0,1 0,2 -1,3 -1,1 -1,1 -2,1 -2,0 -2,0 -3,-1 -1,-1 -1,-4 -1,-10 0,-7 0,-10 1,-11 1,-1 1,-1 3,-1 1,0 1,0 2,1 1,1 1,2 1,3 3,0 3,0 3,0 0,-2 0,-4 -2,-6 -1,-1 -2,-1 -4,-1 -3,0 -4,0 -5,2 -2,2 -3,4 -3,13 0,8 1,10 3,12 1,2 2,3 5,3 2,0 3,-1 4,-2 2,-1 2,-4 2,-6 m -22,-7 c 0,6 0,9 -1,10 -1,1 -2,1 -3,1 -1,0 -2,0 -2,-1 -1,-1 -1,-4 -1,-10 0,-7 0,-10 1,-11 0,-1 1,-1 2,-1 1,0 2,0 3,1 1,1 1,4 1,11 m 3,0 c 0,-9 0,-11 -2,-13 -1,-2 -2,-2 -5,-2 -2,0 -4,0 -5,2 -2,2 -2,4 -2,13 0,8 0,10 2,12 1,2 3,3 5,3 3,0 4,-1 5,-3 2,-2 2,-4 2,-12 m -19,14 c 0,-29 0,-29 0,-29 -4,0 -4,0 -4,0 0,13 0,13 0,13 -6,0 -6,0 -6,0 0,-13 0,-13 0,-13 -4,0 -4,0 -4,0 0,29 0,29 0,29 4,0 4,0 4,0 0,-13 0,-13 0,-13 6,0 6,0 6,0 0,13 0,13 0,13 z m -28,0 c 0,-3 0,-3 0,-3 -8,0 -8,0 -8,0 0,-10 0,-10 0,-10 7,0 7,0 7,0 0,-3 0,-3 0,-3 -7,0 -7,0 -7,0 0,-10 0,-10 0,-10 8,0 8,0 8,0 0,-3 0,-3 0,-3 -12,0 -12,0 -12,0 0,29 0,29 0,29 z m -18,0 c 0,-29 0,-29 0,-29 -3,0 -3,0 -3,0 0,13 0,13 0,13 -7,0 -7,0 -7,0 0,-13 0,-13 0,-13 -3,0 -3,0 -3,0 0,29 0,29 0,29 3,0 3,0 3,0 0,-13 0,-13 0,-13 7,0 7,0 7,0 0,13 0,13 0,13 z m -18,-7 c -4,0 -4,0 -4,0 0,1 0,2 -1,3 0,1 -1,1 -2,1 -1,0 -2,0 -2,-1 -1,-1 -2,-4 -2,-10 0,-7 1,-10 2,-11 0,-1 1,-1 2,-1 1,0 2,0 2,1 1,1 1,2 1,3 4,0 4,0 4,0 0,-2 -1,-4 -2,-6 -1,-1 -3,-1 -5,-1 -2,0 -4,0 -5,2 -2,2 -2,4 -2,13 0,8 0,10 2,12 1,2 3,3 5,3 2,0 3,-1 5,-2 1,-1 2,-4 2,-6 m -19,-1 c 0,-4 0,-6 -4,-8 -3,-1 -3,-1 -3,-1 -2,-1 -3,-2 -3,-5 0,-1 0,-3 1,-3 1,-1 1,-1 2,-1 2,0 2,0 3,1 1,1 1,2 1,3 3,0 3,0 3,0 0,-2 0,-4 -2,-6 -1,-1 -2,-1 -5,-1 -1,0 -3,0 -4,1 -2,2 -2,4 -2,6 0,5 1,6 4,8 3,1 3,1 3,1 2,1 3,2 3,5 0,2 0,3 -1,4 -1,1 -1,1 -3,1 -1,0 -2,0 -2,-1 -1,0 -1,-2 -1,-3 -4,0 -4,0 -4,0 0,3 1,4 2,6 1,1 3,1 5,1 3,0 4,0 6,-1 1,-2 1,-4 1,-7 M 97,165 c -3,0 -3,0 -3,0 0,29 0,29 0,29 3,0 3,0 3,0 z m -10,29 c 0,-29 0,-29 0,-29 -3,0 -3,0 -3,0 0,20 0,20 0,20 -8,-20 -8,-20 -8,-20 -3,0 -3,0 -3,0 0,29 0,29 0,29 3,0 3,0 3,0 0,-20 0,-20 0,-20 8,20 8,20 8,20 z m -20,0 c 0,-29 0,-29 0,-29 -4,0 -4,0 -4,0 0,13 0,13 0,13 -6,0 -6,0 -6,0 0,-13 0,-13 0,-13 -4,0 -4,0 -4,0 0,29 0,29 0,29 4,0 4,0 4,0 0,-13 0,-13 0,-13 6,0 6,0 6,0 0,13 0,13 0,13 z m -19,-7 c -4,0 -4,0 -4,0 0,1 0,2 0,3 -1,1 -2,1 -3,1 -1,0 -2,0 -2,-1 -1,-1 -1,-4 -1,-10 0,-7 0,-10 1,-11 0,-1 1,-1 2,-1 1,0 2,0 3,1 0,1 0,2 0,3 4,0 4,0 4,0 0,-2 -1,-4 -2,-6 -1,-1 -3,-1 -5,-1 -2,0 -4,0 -5,2 -2,2 -2,4 -2,13 0,8 0,10 2,12 1,2 3,3 5,3 2,0 4,-1 5,-2 1,-1 2,-4 2,-6 m -18,7 c 0,-3 0,-3 0,-3 -8,0 -8,0 -8,0 0,-10 0,-10 0,-10 7,0 7,0 7,0 0,-3 0,-3 0,-3 -7,0 -7,0 -7,0 0,-10 0,-10 0,-10 8,0 8,0 8,0 0,-3 0,-3 0,-3 -12,0 -12,0 -12,0 0,29 0,29 0,29 z M 14,168 c 0,-3 0,-3 0,-3 -14,0 -14,0 -14,0 0,3 0,3 0,3 5,0 5,0 5,0 0,26 0,26 0,26 4,0 4,0 4,0 0,-26 0,-26 0,-26 z"
         id="path12565" /><path
         style="fill:#4b5c66;fill-opacity:1;fill-rule:nonzero;stroke:none"
         d="m 145,134 h 3 V 0 h -3 z"
         id="path12567" /></g></g></svg>
